{
    "asset" : {
        "generator" : "Khronos glTF Blender I/O v1.6.16",
        "version" : "2.0"
    },
    "scene" : 0,
    "scenes" : [
        {
            "name" : "Scene",
            "nodes" : [
                0,
                1
            ]
        }
    ],
    "nodes" : [
        {
            "name" : "Empty",
            "rotation" : [
                0.6903455853462219,
                -0.1530458927154541,
                -0.1530459225177765,
                0.6903454661369324
            ],
            "translation" : [
                -0.11026367545127869,
                -0.30432772636413574,
                0
            ]
        },
        {
            "mesh" : 0,
            "name" : "Cylinder"
        }
    ],
    "materials" : [
        {
            "doubleSided" : true,
            "name" : "Cannon",
            "pbrMetallicRoughness" : {
                "baseColorFactor" : [
                    0.1933734267950058,
                    0.1933734267950058,
                    0.1933734267950058,
                    1
                ],
                "metallicFactor" : 0
            }
        },
        {
            "doubleSided" : true,
            "name" : "Rope",
            "pbrMetallicRoughness" : {
                "metallicFactor" : 0
            }
        }
    ],
    "meshes" : [
        {
            "name" : "Cylinder.001",
            "primitives" : [
                {
                    "attributes" : {
                        "POSITION" : 0,
                        "NORMAL" : 1,
                        "TEXCOORD_0" : 2
                    },
                    "indices" : 3,
                    "material" : 0
                },
                {
                    "attributes" : {
                        "POSITION" : 4,
                        "NORMAL" : 5,
                        "TEXCOORD_0" : 6
                    },
                    "indices" : 7,
                    "material" : 1
                }
            ]
        }
    ],
    "accessors" : [
        {
            "bufferView" : 0,
            "componentType" : 5126,
            "count" : 678,
            "max" : [
                2.7352042198181152,
                1.4505033493041992,
                1.388035774230957
            ],
            "min" : [
                -2.858900547027588,
                -1.388035535812378,
                -1.388035535812378
            ],
            "type" : "VEC3"
        },
        {
            "bufferView" : 1,
            "componentType" : 5126,
            "count" : 678,
            "type" : "VEC3"
        },
        {
            "bufferView" : 2,
            "componentType" : 5126,
            "count" : 678,
            "type" : "VEC2"
        },
        {
            "bufferView" : 3,
            "componentType" : 5123,
            "count" : 3468,
            "type" : "SCALAR"
        },
        {
            "bufferView" : 4,
            "componentType" : 5126,
            "count" : 18,
            "max" : [
                -1.186906099319458,
                1.6274899244308472,
                0.07742515206336975
            ],
            "min" : [
                -1.4333258867263794,
                1.425533652305603,
                -0.11984299123287201
            ],
            "type" : "VEC3"
        },
        {
            "bufferView" : 5,
            "componentType" : 5126,
            "count" : 18,
            "type" : "VEC3"
        },
        {
            "bufferView" : 6,
            "componentType" : 5126,
            "count" : 18,
            "type" : "VEC2"
        },
        {
            "bufferView" : 7,
            "componentType" : 5123,
            "count" : 84,
            "type" : "SCALAR"
        }
    ],
    "bufferViews" : [
        {
            "buffer" : 0,
            "byteLength" : 8136,
            "byteOffset" : 0
        },
        {
            "buffer" : 0,
            "byteLength" : 8136,
            "byteOffset" : 8136
        },
        {
            "buffer" : 0,
            "byteLength" : 5424,
            "byteOffset" : 16272
        },
        {
            "buffer" : 0,
            "byteLength" : 6936,
            "byteOffset" : 21696
        },
        {
            "buffer" : 0,
            "byteLength" : 216,
            "byteOffset" : 28632
        },
        {
            "buffer" : 0,
            "byteLength" : 216,
            "byteOffset" : 28848
        },
        {
            "buffer" : 0,
            "byteLength" : 144,
            "byteOffset" : 29064
        },
        {
            "buffer" : 0,
            "byteLength" : 168,
            "byteOffset" : 29208
        }
    ],
    "buffers" : [
        {
            "byteLength" : 29376,
            "uri" : "data:application/octet-stream;base64,"
        }
    ]
}
